PathFileType	4	(X/Y/Z)	RBDS017\RBDS017runT35.trc
DataRate	CameraRate	NumFrames	NumMarkers	Units	OrigDataRate	OrigDataStartFrame	OrigNumFrames
150.000000	150.000000	5	33	mm	150.000000	0	4500
Frame#	Time	L.ASIS			L.Heel.Bottom			L.Heel.Lateral			L.Heel.Top			L.Iliac.Crest			L.MT1			L.MT5			L.PSIS			L.Shank.Bottom.Lateral			L.Shank.Bottom.Medial			L.Shank.Top.Lateral			L.Shank.Top.Medial			L.Thigh.Bottom.Lateral			L.Thigh.Bottom.Medial			L.Thigh.Top.Lateral			L.Thigh.Top.Medial			R.ASIS			R.ASY			R.Heel.Bottom			R.Heel.Lateral			R.Heel.Top			R.Iliac.Crest			R.MT1			R.MT5			R.PSIS			R.Shank.Bottom.Lateral			R.Shank.Bottom.Medial			R.Shank.Top.Lateral			R.Shank.Top.Medial			R.Thigh.Bottom.Lateral			R.Thigh.Bottom.Medial			R.Thigh.Top.Lateral			R.Thigh.Top.Medial			
		X1	Y1	Z1	X2	Y2	Z2	X3	Y3	Z3	X4	Y4	Z4	X5	Y5	Z5	X6	Y6	Z6	X7	Y7	Z7	X8	Y8	Z8	X9	Y9	Z9	X10	Y10	Z10	X11	Y11	Z11	X12	Y12	Z12	X13	Y13	Z13	X14	Y14	Z14	X15	Y15	Z15	X16	Y16	Z16	X17	Y17	Z17	X18	Y18	Z18	X19	Y19	Z19	X20	Y20	Z20	X21	Y21	Z21	X22	Y22	Z22	X23	Y23	Z23	X24	Y24	Z24	X25	Y25	Z25	X26	Y26	Z26	X27	Y27	Z27	X28	Y28	Z28	X29	Y29	Z29	X30	Y30	Z30	X31	Y31	Z31	X32	Y32	Z32	X33	Y33	Z33	

1	0	2179.133894076086	1024.206234487286	891.9662320438198	2139.341063318496	30.49772305803465	994.7235384356875	2157.121219261632	50.8906963680259	957.7318761520044	2149.548714122909	75.35134514952358	999.3150884124425	2111.890569843298	1118.295422993792	851.2184246044455	2370.369245500551	50.21514347706265	1007.654839922288	2320.790089973393	41.59139975296576	901.6140309765584	2004.29548184064	1087.476131113448	982.9041400192557	2223.997741933336	183.2594634513389	931.9544979685586	2178.677418277696	189.6923598963892	962.4898715173488	2222.619828717736	261.5992059195283	913.3989835478418	2177.657702023047	269.0221357943411	942.1786706678917	2223.799727415247	659.1096791473905	867.5017501007427	2166.255893232249	630.6049357711125	901.0604866310739	2166.045772438327	752.210000329652	854.2764699275339	2112.283191119509	726.0926246889481	887.326319397675	2179.492206035103	1013.659245826003	1167.925569435345	1568.202942555476	381.6226428831297	1119.599729479095	1617.449586518148	574.5772279918592	1072.246176928934	1613.93202782497	554.3143015804358	1119.717497047777	1652.02306646077	546.5287742795502	1090.351442847231	2151.125859949766	1112.828016249576	1197.933802658439	1542.290839282629	362.184438888267	1068.872777390309	1517.666055722263	424.4886705355443	1162.555284665149	2011.787670970411	1084.645570681988	1085.968949386312	1719.742937000136	502.666308172302	1164.138526142442	1724.633734766503	536.8126389028555	1124.97814240479	1801.115301941509	513.5113921194074	1182.149831293518	1802.23520147389	549.7719456376078	1142.679911641202	2064.186992319772	622.5435554661517	1216.874573270125	2013.054059762442	617.3137853588096	1163.97918896003	2049.593173861108	731.1235752741572	1216.15319395853	2002.647075754321	726.3460529307572	1165.331282872316	
2	0.006666666666666667	2176.533443457188	1019.36086521681	890.0211276585748	2117.187035044306	31.07908424481164	995.4075228860323	2135.119572333115	51.8015744211208	958.6775664948447	2127.974512972059	75.81832461861333	1000.5410712763	2109.605974604449	1111.11306366801	850.9014634637709	2348.40280905297	49.09315191976182	1008.079729899617	2298.43086882717	41.74243570835214	902.0084468371699	2002.440225229267	1083.583779005909	983.522780851468	2207.150246271729	182.3953325239405	933.6334622003363	2162.069980347354	191.0440798253184	963.7591951275429	2209.225868279025	260.4694535134316	914.7537113540423	2164.758730827368	269.9154707683958	943.4617776411613	2222.406003841744	655.2338351837019	868.1895998650608	2164.897415744439	626.9770333691425	902.1247607341692	2164.751824913396	748.392093761255	854.5108362035552	2110.964781581842	722.4856170379842	887.735097029899	2177.268906628621	1007.406305524246	1167.78679094264	1582.033935244868	383.5397532403439	1119.697193833101	1633.166697289479	577.3559291077136	1075.583995710262	1629.45900158547	556.3674115268583	1123.221084122199	1667.553718155969	548.6717725747756	1092.935481669903	2148.606111381558	1104.440435928162	1198.469062304191	1555.431623131063	365.6904634324233	1069.166213326388	1531.980844798539	426.7165245277615	1164.007290672261	2009.440562848668	1080.105244528438	1085.417452836314	1735.048390025344	503.0191189303789	1165.733131233758	1740.361188684588	537.0481317135741	1126.907667652256	1816.554218623339	512.4023024390758	1183.719082901936	1818.24591687287	548.7654246007826	1144.276672432584	2073.802116915952	618.4408844982369	1217.970445032159	2022.336012782391	611.2681821327476	1165.798243891555	2055.970876815342	726.5313846389614	1216.55733302875	2008.754968701409	719.9640341756794	1166.21634066546	
3	0.01333333333333333	2174.009761602711	1014.631336560351	888.1348877163912	2094.923304825029	31.64975045092428	996.041624532579	2112.998474726595	52.68029175950337	959.5570468290157	2106.255819761799	76.27825082312829	1001.683693477484	2107.305606985698	1104.264934927995	850.546905454697	2326.296836232137	48.01047352216695	1008.483399587317	2275.955082550709	41.87471310536872	902.3803740152005	2000.642967778798	1079.878460155927	984.0546115273535	2190.079071427342	181.5370384840547	935.2200684113332	2145.245430282429	192.3444375706219	964.9408139905727	2195.550154389169	259.3275138220813	916.0449277022346	2151.563885481497	270.7490846697227	944.6610116128853	2220.665638168106	651.3642814008721	868.8495687376844	2163.136007626048	623.4089896694858	903.0906223154327	2163.241806212742	744.647464965621	854.7336860668586	2109.378948732785	719.0051122858579	888.0769721839722	2175.060779231794	1001.489159332698	1167.693899571003	1596.143179996849	385.0286924513571	1119.811501696005	1648.717477737709	579.7472216803858	1078.909060312289	1644.879531043151	558.0278087934001	1126.677744586759	1682.975361379255	550.5237901698263	1095.517118429561	2145.872583193138	1096.525339992305	1199.037154312981	1568.890998775469	368.6809317669112	1069.45313572693	1546.492007082882	428.370525756962	1165.443964633284	2007.147463043179	1075.787575591613	1084.841469206664	1750.393661314986	503.1955078474704	1167.308308444155	1756.069011877744	537.1267334382521	1128.80432376015	1832.023263070244	511.2594699120934	1185.248826932011	1834.216069048486	547.7179354053754	1145.835819267791	2083.512714910902	614.6405706972631	1219.013592017857	2031.752950921265	605.5124119950658	1167.553554249788	2062.406023937167	722.1906809478003	1216.939529085923	2014.950116770252	713.8239246454581	1167.079003577983	
4	0.02	2171.631967848058	1010.135127927044	886.3672712136153	2072.437864704155	32.17695144614827	996.5865134764989	2090.638042479311	53.48244614966062	960.3162963867983	2084.244530688686	76.70637215923126	1002.675110794341	2104.972433288754	1098.049801387068	850.1263356898194	2303.927553681556	47.00258532291286	1008.844098308675	2253.257313268653	41.97566937361438	902.7099427421564	1998.951663261482	1076.528669360205	984.424332918791	2172.569298237891	180.681100767725	936.6397944877178	2127.993165057997	193.5412806478304	965.9619433107777	2181.32732062239	258.1519828329517	917.2213097356689	2137.794647919395	271.461272024924	945.7056499402645	2218.259179615774	647.4974015805197	869.463072995992	2160.599058556337	619.9455609349063	903.8754798557413	2161.311491724787	741.0345925014924	854.9400434477749	2107.27375133144	715.7576478485494	888.2986626651712	2172.875672646783	996.2013876392605	1167.688751308487	1610.760737091498	385.6987136495475	1119.956878660173	1663.920771722133	581.4096974510531	1082.205954875858	1660.074028032459	558.9520944097366	1130.037766687272	1698.161812815968	551.8295671109967	1098.087918182898	2142.756926425712	1089.496979149363	1199.66150236682	1582.940012972731	370.6813058101255	1069.727550884049	1561.35969319925	428.9306217589543	1166.851196084898	2004.954055000882	1071.890797995388	1084.220490768379	1765.800063101182	503.0425841560075	1168.844831355423	1771.723934980523	536.9175028369142	1130.63866049652	1847.541379551381	510.0613531501992	1186.703898899964	1850.100035704846	546.6080065420055	1147.32712095874	2093.409236248897	611.4236588199109	1219.955859900731	2041.435180175969	600.3151829806213	1169.183490766049	2068.949893482417	718.3308842255635	1217.279423783541	2021.314393265524	708.1438012527309	1167.896750768389	
5	0.02666666666666667	2169.463092496633	1005.989093656179	884.7768484887645	2049.663791504664	32.63798349458015	997.0150852549692	2067.965805523335	54.17746833302265	960.9165363201956	2061.846641669005	77.08677336899073	1003.466532174562	2102.612895400676	1092.707257149144	849.6194415330438	2281.222720008463	46.09796020068401	1009.144191948969	2230.277719770228	42.03707459388832	902.9829652159084	1997.406905991403	1073.677554289301	984.5772084995682	2154.466046432619	179.8366883420385	937.8365316797548	2110.16245462202	194.6045799506419	966.7717595727709	2166.356145731056	256.9395863174562	918.2433219989807	2123.242370953375	272.015506980407	946.5469458508712	2214.934527778986	643.6469263337068	870.0141574073152	2156.995789955312	616.6375836400658	904.4168840034058	2158.795176255276	737.6122427102324	855.1256949165414	2104.449805064135	712.8391887007994	888.3625621024814	2170.725688519078	991.7838967116114	1167.802028443728	1626.053427234396	385.2313201375064	1120.145676328149	1678.605823762794	582.0582871452269	1085.448392350556	1674.926649661881	558.8601915692865	1133.246643892655	1712.987686903375	552.3742669177881	1100.627834565039	2139.168018072786	1083.682085005783	1200.351315971763	1597.779660507808	371.3011379172712	1069.98877652092	1576.698484246001	427.9782708895592	1168.216529210568	2002.898511285614	1068.578771255673	1083.542584825792	1781.258744843023	502.4360233220415	1170.322799777369	1787.272089237864	536.3127079893223	1132.382943518093	1863.0982784213	508.7948131076853	1188.052696133641	1865.832896487542	545.4241952966793	1148.725447089399	2103.54520807984	609.029023465318	1220.757548742037	2051.468987857122	595.9090294364585	1170.63557595276	2075.630832913755	715.1484904018488	1217.560185595193	2027.900308821995	703.1128662275522	1168.650915078084	
